<svg width="620" height="560" viewBox="0 0 620 560" xmlns="http://www.w3.org/2000/svg" font-family="Arial, Helvetica, sans-serif">
<defs>
  <marker id="a" viewBox="0 0 10 10" refX="8" refY="5" markerWidth="6" markerHeight="6" orient="auto-start-reverse">
    <path d="M2 1L8 5L2 9" fill="none" stroke="context-stroke" stroke-width="1.5" stroke-linecap="round" stroke-linejoin="round"/>
  </marker>
</defs>
<rect width="620" height="560" fill="white"/>

<rect x="185" y="20" width="250" height="48" rx="6" fill="#FAECE7" stroke="#993C1D" stroke-width="1"/>
<text x="310" y="40" text-anchor="middle" font-size="13" font-weight="700" fill="#711113">BC5CDR Dataset</text>
<text x="310" y="57" text-anchor="middle" font-size="10" fill="#993C1D">Train 5,228  ·  Val 5,330  ·  Test 5,865 sentences</text>
<line x1="310" y1="68" x2="310" y2="90" stroke="#666" stroke-width="1.2" marker-end="url(#a)"/>

<rect x="135" y="90" width="350" height="48" rx="6" fill="#E1F5EE" stroke="#0F6E56" stroke-width="1"/>
<text x="310" y="110" text-anchor="middle" font-size="13" font-weight="700" fill="#085041">Preprocessing &amp; Tokenization</text>
<text x="310" y="127" text-anchor="middle" font-size="10" fill="#0F6E56">BIO label mapping  ·  subword alignment  ·  128 tokens</text>
<line x1="310" y1="138" x2="310" y2="160" stroke="#666" stroke-width="1.2" marker-end="url(#a)"/>

<rect x="135" y="160" width="350" height="48" rx="6" fill="#EEEDFE" stroke="#534AB7" stroke-width="1"/>
<text x="310" y="180" text-anchor="middle" font-size="13" font-weight="700" fill="#3C3489">PubMedBERT  (110 M params)</text>
<text x="310" y="197" text-anchor="middle" font-size="10" fill="#534AB7">Pre-trained biomedical language model</text>

<path d="M225 208 L225 228 L140 228 L140 250" fill="none" stroke="#888" stroke-width="1.1" marker-end="url(#a)"/>
<line x1="310" y1="208" x2="310" y2="250" stroke="#888" stroke-width="1.1" marker-end="url(#a)"/>
<path d="M395 208 L395 228 L480 228 L480 250" fill="none" stroke="#888" stroke-width="1.1" marker-end="url(#a)"/>

<rect x="62" y="250" width="156" height="80" rx="6" fill="#E6F1FB" stroke="#185FA5" stroke-width="1"/>
<text x="140" y="272" text-anchor="middle" font-size="12" font-weight="700" fill="#0C447C">Full Fine-Tuning</text>
<text x="140" y="290" text-anchor="middle" font-size="10" fill="#185FA5">All 110 M params</text>
<text x="140" y="306" text-anchor="middle" font-size="10" fill="#185FA5">LR 2e-5  ·  cosine</text>
<text x="140" y="322" text-anchor="middle" font-size="10" fill="#185FA5">seeds 42, 123</text>

<rect x="232" y="250" width="156" height="80" rx="6" fill="#FAEEDA" stroke="#854F0B" stroke-width="1"/>
<text x="310" y="272" text-anchor="middle" font-size="12" font-weight="700" fill="#633806">LoRA</text>
<text x="310" y="290" text-anchor="middle" font-size="10" fill="#854F0B">r=8  ·  attention adapters</text>
<text x="310" y="306" text-anchor="middle" font-size="10" fill="#854F0B">LR 3e-4  ·  cosine</text>
<text x="310" y="322" text-anchor="middle" font-size="10" fill="#854F0B">seeds 42, 123</text>

<rect x="402" y="250" width="156" height="80" rx="6" fill="#EAF3DE" stroke="#3B6D11" stroke-width="1"/>
<text x="480" y="272" text-anchor="middle" font-size="12" font-weight="700" fill="#173404">QLoRA</text>
<text x="480" y="290" text-anchor="middle" font-size="10" fill="#3B6D11">4-bit NF4 + LoRA r=8</text>
<text x="480" y="306" text-anchor="middle" font-size="10" fill="#3B6D11">LR 3e-4  ·  cosine</text>
<text x="480" y="322" text-anchor="middle" font-size="10" fill="#3B6D11">seeds 42, 123</text>

<path d="M140 330 L140 360 L308 360" fill="none" stroke="#888" stroke-width="1.1" marker-end="url(#a)"/>
<line x1="310" y1="330" x2="310" y2="360" stroke="#888" stroke-width="1.1" marker-end="url(#a)"/>
<path d="M480 330 L480 360 L312 360" fill="none" stroke="#888" stroke-width="1.1" marker-end="url(#a)"/>

<rect x="135" y="360" width="350" height="48" rx="6" fill="#EEEDFE" stroke="#534AB7" stroke-width="1"/>
<text x="310" y="380" text-anchor="middle" font-size="13" font-weight="700" fill="#3C3489">Evaluation  —  seqeval</text>
<text x="310" y="397" text-anchor="middle" font-size="10" fill="#534AB7">F1  ·  Precision  ·  Recall  ·  Accuracy  ·  val + test set</text>
<line x1="310" y1="408" x2="310" y2="430" stroke="#666" stroke-width="1.2" marker-end="url(#a)"/>

<rect x="135" y="430" width="350" height="48" rx="6" fill="#E1F5EE" stroke="#0F6E56" stroke-width="1"/>
<text x="310" y="450" text-anchor="middle" font-size="13" font-weight="700" fill="#085041">Results &amp; Analysis</text>
<text x="310" y="467" text-anchor="middle" font-size="10" fill="#0F6E56">Comparative performance  ·  efficiency analysis  ·  entity-level F1</text>

<line x1="62" y1="500" x2="558" y2="500" stroke="#ddd" stroke-width="0.6"/>
<text x="310" y="520" text-anchor="middle" font-size="10" font-weight="700" fill="#333">Fig. 1.  System architecture — PubMedBERT fine-tuning for Biomedical NER on BC5CDR</text>
<text x="310" y="536" text-anchor="middle" font-size="9" fill="#666">Full fine-tuning  vs  LoRA  vs  QLoRA  ·  data-size ablation  ·  2 seeds  ·  entity-level evaluation</text>
</svg>
